<svg width="354" height="354" viewBox="0 0 354 354" fill="none" xmlns="http://www.w3.org/2000/svg">
<g filter="url(#filter0_if_1_71)">
<g clip-path="url(#clip0_1_71)">
<rect x="2" y="2" width="350" height="350" rx="175" fill="#C3865A"/>
<circle cx="177" cy="177" r="175" fill="#B42D11"/>
<circle cx="177" cy="177" r="175" fill="#B42D11"/>
<g filter="url(#filter1_f_1_71)">
<path d="M300.375 265.326L173.876 279H126.899C124.622 279 122.362 278.597 120.224 277.81C102.817 271.401 103.566 246.53 121.327 241.18L122.077 240.954C122.995 240.677 123.932 240.469 124.88 240.329L195.529 229.953C199.832 229.321 204.204 229.318 208.508 229.943L300.778 243.357C311.022 244.846 313.804 258.326 304.986 263.749C303.585 264.611 302.01 265.149 300.375 265.326Z" fill="#7C1C08"/>
<path d="M300.375 265.326L173.876 279H126.899C124.622 279 122.362 278.597 120.224 277.81C102.817 271.401 103.566 246.53 121.327 241.18L122.077 240.954C122.995 240.677 123.932 240.469 124.88 240.329L195.529 229.953C199.832 229.321 204.204 229.318 208.508 229.943L300.778 243.357C311.022 244.846 313.804 258.326 304.986 263.749C303.585 264.611 302.01 265.149 300.375 265.326Z" stroke="#241717"/>
</g>
</g>
</g>
<defs>
<filter id="filter0_if_1_71" x="-3" y="0" width="357" height="354" filterUnits="userSpaceOnUse" color-interpolation-filters="sRGB">
<feFlood flood-opacity="0" result="BackgroundImageFix"/>
<feBlend mode="normal" in="SourceGraphic" in2="BackgroundImageFix" result="shape"/>
<feColorMatrix in="SourceAlpha" type="matrix" values="0 0 0 0 0 0 0 0 0 0 0 0 0 0 0 0 0 0 127 0" result="hardAlpha"/>
<feMorphology radius="10" operator="erode" in="SourceAlpha" result="effect1_innerShadow_1_71"/>
<feOffset dx="-5"/>
<feGaussianBlur stdDeviation="20"/>
<feComposite in2="hardAlpha" operator="arithmetic" k2="-1" k3="1"/>
<feColorMatrix type="matrix" values="0 0 0 0 0 0 0 0 0 0 0 0 0 0 0 0 0 0 0.37 0"/>
<feBlend mode="normal" in2="shape" result="effect1_innerShadow_1_71"/>
<feGaussianBlur stdDeviation="1" result="effect2_foregroundBlur_1_71"/>
</filter>
<filter id="filter1_f_1_71" x="97.0784" y="218.977" width="223.69" height="70.5233" filterUnits="userSpaceOnUse" color-interpolation-filters="sRGB">
<feFlood flood-opacity="0" result="BackgroundImageFix"/>
<feBlend mode="normal" in="SourceGraphic" in2="BackgroundImageFix" result="shape"/>
<feGaussianBlur stdDeviation="5" result="effect1_foregroundBlur_1_71"/>
</filter>
<clipPath id="clip0_1_71">
<rect x="2" y="2" width="350" height="350" rx="175" fill="white"/>
</clipPath>
</defs>
</svg>
