<svg width="354" height="354" viewBox="0 0 354 354" fill="none" xmlns="http://www.w3.org/2000/svg">
<g filter="url(#filter0_if_1_30)">
<g clip-path="url(#clip0_1_30)">
<rect x="2" y="2" width="350" height="350" rx="175" fill="#C3865A"/>
<circle cx="177" cy="177" r="175" fill="#C84914"/>
<circle cx="177" cy="177" r="175" fill="#C84914"/>
<g filter="url(#filter1_f_1_30)">
<circle cx="92.5" cy="208.5" r="18.5" fill="#3A1B0C"/>
</g>
<g filter="url(#filter2_f_1_30)">
<circle cx="175.5" cy="252.5" r="11.5" fill="#3A1B0C"/>
</g>
<g filter="url(#filter3_f_1_30)">
<circle cx="285.5" cy="239.5" r="12.5" fill="#3A1B0C"/>
</g>
<g filter="url(#filter4_f_1_30)">
<circle cx="39.5" cy="115.5" r="12.5" fill="#3A1B0C"/>
</g>
<path d="M365.195 106.018L228.11 132.21C218.832 133.983 209.407 134.875 199.96 134.875H147.318C144.656 134.875 142.014 135.332 139.507 136.227L113.937 145.354C100.07 150.303 100.984 170.213 115.245 173.871C116.226 174.123 117.23 174.274 118.242 174.323L292.561 182.654C297.367 182.884 302.184 182.593 306.928 181.785L376.734 169.904C403.512 165.346 413.183 131.877 392.964 113.739C385.42 106.972 375.149 104.116 365.195 106.018Z" fill="#ECA832" stroke="#ECA832"/>
</g>
</g>
<defs>
<filter id="filter0_if_1_30" x="-3" y="0" width="357" height="354" filterUnits="userSpaceOnUse" color-interpolation-filters="sRGB">
<feFlood flood-opacity="0" result="BackgroundImageFix"/>
<feBlend mode="normal" in="SourceGraphic" in2="BackgroundImageFix" result="shape"/>
<feColorMatrix in="SourceAlpha" type="matrix" values="0 0 0 0 0 0 0 0 0 0 0 0 0 0 0 0 0 0 127 0" result="hardAlpha"/>
<feMorphology radius="10" operator="erode" in="SourceAlpha" result="effect1_innerShadow_1_30"/>
<feOffset dx="-5"/>
<feGaussianBlur stdDeviation="20"/>
<feComposite in2="hardAlpha" operator="arithmetic" k2="-1" k3="1"/>
<feColorMatrix type="matrix" values="0 0 0 0 0 0 0 0 0 0 0 0 0 0 0 0 0 0 0.37 0"/>
<feBlend mode="normal" in2="shape" result="effect1_innerShadow_1_30"/>
<feGaussianBlur stdDeviation="1" result="effect2_foregroundBlur_1_30"/>
</filter>
<filter id="filter1_f_1_30" x="66" y="182" width="53" height="53" filterUnits="userSpaceOnUse" color-interpolation-filters="sRGB">
<feFlood flood-opacity="0" result="BackgroundImageFix"/>
<feBlend mode="normal" in="SourceGraphic" in2="BackgroundImageFix" result="shape"/>
<feGaussianBlur stdDeviation="4" result="effect1_foregroundBlur_1_30"/>
</filter>
<filter id="filter2_f_1_30" x="156" y="233" width="39" height="39" filterUnits="userSpaceOnUse" color-interpolation-filters="sRGB">
<feFlood flood-opacity="0" result="BackgroundImageFix"/>
<feBlend mode="normal" in="SourceGraphic" in2="BackgroundImageFix" result="shape"/>
<feGaussianBlur stdDeviation="4" result="effect1_foregroundBlur_1_30"/>
</filter>
<filter id="filter3_f_1_30" x="265" y="219" width="41" height="41" filterUnits="userSpaceOnUse" color-interpolation-filters="sRGB">
<feFlood flood-opacity="0" result="BackgroundImageFix"/>
<feBlend mode="normal" in="SourceGraphic" in2="BackgroundImageFix" result="shape"/>
<feGaussianBlur stdDeviation="4" result="effect1_foregroundBlur_1_30"/>
</filter>
<filter id="filter4_f_1_30" x="19" y="95" width="41" height="41" filterUnits="userSpaceOnUse" color-interpolation-filters="sRGB">
<feFlood flood-opacity="0" result="BackgroundImageFix"/>
<feBlend mode="normal" in="SourceGraphic" in2="BackgroundImageFix" result="shape"/>
<feGaussianBlur stdDeviation="4" result="effect1_foregroundBlur_1_30"/>
</filter>
<clipPath id="clip0_1_30">
<rect x="2" y="2" width="350" height="350" rx="175" fill="white"/>
</clipPath>
</defs>
</svg>
